<svg width="31" height="34" viewBox="0 0 31 34" fill="none" xmlns="http://www.w3.org/2000/svg">
<mask id="path-1-outside-1_7_170" maskUnits="userSpaceOnUse" x="0" y="0" width="31" height="34" fill="black">
<rect fill="white" width="31" height="34"/>
<path d="M24.7471 25.7734V28H10.7871V26.0518L17.7744 18.2734C18.6338 17.3164 19.2979 16.5059 19.7666 15.8418C20.2451 15.168 20.5771 14.5674 20.7627 14.04C20.958 13.5029 21.0557 12.9561 21.0557 12.3994C21.0557 11.6963 20.9092 11.0615 20.6162 10.4951C20.333 9.91895 19.9131 9.45996 19.3564 9.11816C18.7998 8.77637 18.126 8.60547 17.335 8.60547C16.3877 8.60547 15.5967 8.79102 14.9619 9.16211C14.3369 9.52344 13.8682 10.0312 13.5557 10.6855C13.2432 11.3398 13.0869 12.0918 13.0869 12.9414H10.377C10.377 11.7402 10.6406 10.6416 11.168 9.64551C11.6953 8.64941 12.4766 7.8584 13.5117 7.27246C14.5469 6.67676 15.8213 6.37891 17.335 6.37891C18.6826 6.37891 19.835 6.61816 20.792 7.09668C21.749 7.56543 22.4814 8.22949 22.9893 9.08887C23.5068 9.93848 23.7656 10.9346 23.7656 12.0771C23.7656 12.7021 23.6582 13.3369 23.4434 13.9814C23.2383 14.6162 22.9502 15.251 22.5791 15.8857C22.2178 16.5205 21.793 17.1455 21.3047 17.7607C20.8262 18.376 20.3135 18.9814 19.7666 19.5771L14.0537 25.7734H24.7471Z"/>
</mask>
<path d="M24.7471 25.7734V28H10.7871V26.0518L17.7744 18.2734C18.6338 17.3164 19.2979 16.5059 19.7666 15.8418C20.2451 15.168 20.5771 14.5674 20.7627 14.04C20.958 13.5029 21.0557 12.9561 21.0557 12.3994C21.0557 11.6963 20.9092 11.0615 20.6162 10.4951C20.333 9.91895 19.9131 9.45996 19.3564 9.11816C18.7998 8.77637 18.126 8.60547 17.335 8.60547C16.3877 8.60547 15.5967 8.79102 14.9619 9.16211C14.3369 9.52344 13.8682 10.0312 13.5557 10.6855C13.2432 11.3398 13.0869 12.0918 13.0869 12.9414H10.377C10.377 11.7402 10.6406 10.6416 11.168 9.64551C11.6953 8.64941 12.4766 7.8584 13.5117 7.27246C14.5469 6.67676 15.8213 6.37891 17.335 6.37891C18.6826 6.37891 19.835 6.61816 20.792 7.09668C21.749 7.56543 22.4814 8.22949 22.9893 9.08887C23.5068 9.93848 23.7656 10.9346 23.7656 12.0771C23.7656 12.7021 23.6582 13.3369 23.4434 13.9814C23.2383 14.6162 22.9502 15.251 22.5791 15.8857C22.2178 16.5205 21.793 17.1455 21.3047 17.7607C20.8262 18.376 20.3135 18.9814 19.7666 19.5771L14.0537 25.7734H24.7471Z" fill="white"/>
<path d="M24.7471 25.7734H30.7471V19.7734H24.7471V25.7734ZM24.7471 28V34H30.7471V28H24.7471ZM10.7871 28H4.78711V34H10.7871V28ZM10.7871 26.0518L6.32358 22.0422L4.78711 23.7526V26.0518H10.7871ZM17.7744 18.2734L22.2379 22.283L22.2387 22.2822L17.7744 18.2734ZM19.7666 15.8418L14.8746 12.3678L14.8697 12.3747L14.8648 12.3817L19.7666 15.8418ZM20.7627 14.04L15.1239 11.9896L15.1132 12.019L15.1028 12.0486L20.7627 14.04ZM20.6162 10.4951L15.2315 13.1418L15.2586 13.197L15.2869 13.2517L20.6162 10.4951ZM14.9619 9.16211L17.9649 14.3565L17.9775 14.3492L17.9901 14.3419L14.9619 9.16211ZM13.0869 12.9414V18.9414H19.0869V12.9414H13.0869ZM10.377 12.9414H4.37695V18.9414H10.377V12.9414ZM13.5117 7.27246L16.4673 12.494L16.4859 12.4835L16.5044 12.4728L13.5117 7.27246ZM20.792 7.09668L18.1087 12.4632L18.1307 12.4742L18.1528 12.4851L20.792 7.09668ZM22.9893 9.08887L17.8237 12.1412L17.8442 12.176L17.8652 12.2104L22.9893 9.08887ZM23.4434 13.9814L17.7513 12.0841L17.7425 12.1104L17.7339 12.1369L23.4434 13.9814ZM22.5791 15.8857L17.3993 12.8576L17.3818 12.8875L17.3647 12.9176L22.5791 15.8857ZM21.3047 17.7607L16.605 14.0308L16.5867 14.0539L16.5686 14.0771L21.3047 17.7607ZM19.7666 19.5771L24.1778 23.6442L24.1865 23.6348L19.7666 19.5771ZM14.0537 25.7734L9.64249 21.7064L0.360786 31.7734H14.0537V25.7734ZM18.7471 25.7734V28H30.7471V25.7734H18.7471ZM24.7471 22H10.7871V34H24.7471V22ZM16.7871 28V26.0518H4.78711V28H16.7871ZM15.2506 30.0614L22.2379 22.283L13.3109 14.2638L6.32358 22.0422L15.2506 30.0614ZM22.2387 22.2822C23.1758 21.2386 24.0105 20.234 24.6684 19.3019L14.8648 12.3817C14.5852 12.7778 14.0918 13.3942 13.3101 14.2647L22.2387 22.2822ZM24.6586 19.3158C25.3219 18.3818 25.9857 17.273 26.4226 16.0315L15.1028 12.0486C15.1423 11.9363 15.163 11.9116 15.1235 11.983C15.0857 12.0515 15.0089 12.1787 14.8746 12.3678L24.6586 19.3158ZM26.4015 16.0905C26.8293 14.914 27.0557 13.6741 27.0557 12.3994H15.0557C15.0557 12.238 15.0868 12.0918 15.1239 11.9896L26.4015 16.0905ZM27.0557 12.3994C27.0557 10.8372 26.723 9.24172 25.9455 7.73858L15.2869 13.2517C15.0954 12.8813 15.0557 12.5554 15.0557 12.3994H27.0557ZM26.0009 7.8484C25.2083 6.23587 24.0013 4.9294 22.496 4.00514L16.2169 14.2312C16.0425 14.1242 15.848 13.9721 15.662 13.7688C15.4756 13.565 15.3329 13.3481 15.2315 13.1418L26.0009 7.8484ZM22.496 4.00514C20.8131 2.97174 18.9996 2.60547 17.335 2.60547V14.6055C17.2523 14.6055 16.7865 14.581 16.2169 14.2312L22.496 4.00514ZM17.335 2.60547C15.6239 2.60547 13.716 2.94042 11.9337 3.98233L17.9901 14.3419C17.4774 14.6416 17.1515 14.6055 17.335 14.6055V2.60547ZM11.9589 3.9677C10.2804 4.93808 8.97355 6.35755 8.14149 8.09967L18.9698 13.2714C18.8799 13.4596 18.7432 13.6748 18.5504 13.8836C18.3574 14.0927 18.1515 14.2487 17.9649 14.3565L11.9589 3.9677ZM8.14149 8.09967C7.38251 9.68879 7.08691 11.3497 7.08691 12.9414H19.0869C19.0869 12.884 19.0922 12.8956 19.0786 12.9609C19.0645 13.029 19.0332 13.1387 18.9698 13.2714L8.14149 8.09967ZM13.0869 6.94141H10.377V18.9414H13.0869V6.94141ZM16.377 12.9414C16.377 12.6527 16.4312 12.5274 16.4707 12.4528L5.86524 6.83818C4.85 8.75585 4.37695 10.8278 4.37695 12.9414H16.377ZM16.4707 12.4528C16.4691 12.4559 16.463 12.4666 16.452 12.4816C16.441 12.4967 16.4291 12.5105 16.4183 12.5214C16.4077 12.5322 16.4028 12.5354 16.4076 12.5318C16.4126 12.528 16.431 12.5146 16.4673 12.494L10.5561 2.05092C8.58209 3.1683 6.95879 4.77258 5.86524 6.83818L16.4707 12.4528ZM16.5044 12.4728C16.4165 12.5234 16.5955 12.3789 17.335 12.3789V0.378906C15.0471 0.378906 12.6773 0.83008 10.519 2.07208L16.5044 12.4728ZM17.335 12.3789C17.9867 12.3789 18.1726 12.4952 18.1087 12.4632L23.4753 1.73012C21.4973 0.741127 19.3785 0.378906 17.335 0.378906V12.3789ZM18.1528 12.4851C18.1649 12.491 18.111 12.4657 18.0289 12.3913C17.9446 12.3148 17.8732 12.225 17.8237 12.1412L28.1548 6.03649C27.0101 4.09932 25.3658 2.65585 23.4312 1.7083L18.1528 12.4851ZM17.8652 12.2104C17.8385 12.1666 17.8161 12.1222 17.7983 12.0799C17.7806 12.0378 17.77 12.0039 17.7643 11.9819C17.7525 11.9365 17.7656 11.9597 17.7656 12.0771H29.7656C29.7656 10.0001 29.2847 7.89019 28.1133 5.96732L17.8652 12.2104ZM17.7656 12.0771C17.7656 12.0613 17.7663 12.0481 17.7672 12.038C17.768 12.0279 17.769 12.022 17.7692 12.0208C17.7697 12.0179 17.7665 12.0383 17.7513 12.0841L29.1355 15.8788C29.5365 14.6756 29.7656 13.4007 29.7656 12.0771H17.7656ZM17.7339 12.1369C17.6749 12.3196 17.5736 12.5594 17.3993 12.8576L27.7589 18.9139C28.3268 17.9425 28.8017 16.9128 29.1528 15.826L17.7339 12.1369ZM17.3647 12.9176C17.1661 13.2665 16.9166 13.6381 16.605 14.0308L26.0044 21.4907C26.6693 20.6529 27.2695 19.7745 27.7935 18.8539L17.3647 12.9176ZM16.5686 14.0771C16.194 14.5587 15.7872 15.0396 15.3467 15.5195L24.1865 23.6348C24.8397 22.9232 25.4584 22.1932 26.0408 21.4444L16.5686 14.0771ZM15.3554 15.5101L9.64249 21.7064L18.4649 29.8405L24.1778 23.6442L15.3554 15.5101ZM14.0537 31.7734H24.7471V19.7734H14.0537V31.7734Z" fill="black" fill-opacity="0.1" mask="url(#path-1-outside-1_7_170)"/>
</svg>
