<svg width="21" height="34" viewBox="0 0 21 34" fill="none" xmlns="http://www.w3.org/2000/svg">
<mask id="path-1-outside-1_7_90" maskUnits="userSpaceOnUse" x="0" y="0" width="21" height="34" fill="black">
<rect fill="white" width="21" height="34"/>
<path d="M14.6787 6.55469V28H11.9688V9.93848L6.50488 11.9307V9.48438L14.2539 6.55469H14.6787Z"/>
</mask>
<path d="M14.6787 6.55469V28H11.9688V9.93848L6.50488 11.9307V9.48438L14.2539 6.55469H14.6787Z" fill="white"/>
<path d="M14.6787 6.55469H20.6787V0.554688H14.6787V6.55469ZM14.6787 28V34H20.6787V28H14.6787ZM11.9688 28H5.96875V34H11.9688V28ZM11.9688 9.93848H17.9688V1.36443L9.91344 4.30148L11.9688 9.93848ZM6.50488 11.9307H0.504883V20.5047L8.56019 17.5677L6.50488 11.9307ZM6.50488 9.48438L4.38304 3.87209L0.504883 5.33831V9.48438H6.50488ZM14.2539 6.55469V0.554688H13.1576L12.1321 0.942401L14.2539 6.55469ZM8.67871 6.55469V28H20.6787V6.55469H8.67871ZM14.6787 22H11.9688V34H14.6787V22ZM17.9688 28V9.93848H5.96875V28H17.9688ZM9.91344 4.30148L4.44957 6.29367L8.56019 17.5677L14.0241 15.5755L9.91344 4.30148ZM12.5049 11.9307V9.48438H0.504883V11.9307H12.5049ZM8.62673 15.0967L16.3758 12.167L12.1321 0.942401L4.38304 3.87209L8.62673 15.0967ZM14.2539 12.5547H14.6787V0.554688H14.2539V12.5547Z" fill="black" fill-opacity="0.1" mask="url(#path-1-outside-1_7_90)"/>
</svg>
