<svg width="26" height="35" viewBox="0 0 26 35" fill="none" xmlns="http://www.w3.org/2000/svg">
<mask id="path-1-outside-1_7_171" maskUnits="userSpaceOnUse" x="0" y="0" width="26" height="35" fill="black">
<rect fill="white" width="26" height="35"/>
<path d="M10.7275 16.0029H12.6611C13.6084 16.0029 14.3896 15.8467 15.0049 15.5342C15.6299 15.2119 16.0938 14.7773 16.3965 14.2305C16.709 13.6738 16.8652 13.0488 16.8652 12.3555C16.8652 11.5352 16.7285 10.8467 16.4551 10.29C16.1816 9.7334 15.7715 9.31348 15.2246 9.03027C14.6777 8.74707 13.9844 8.60547 13.1445 8.60547C12.3828 8.60547 11.709 8.75684 11.123 9.05957C10.5469 9.35254 10.0928 9.77246 9.76074 10.3193C9.43848 10.8662 9.27734 11.5107 9.27734 12.2529H6.56738C6.56738 11.1689 6.84082 10.1826 7.3877 9.29395C7.93457 8.40527 8.70117 7.69727 9.6875 7.16992C10.6836 6.64258 11.8359 6.37891 13.1445 6.37891C14.4336 6.37891 15.5615 6.6084 16.5283 7.06738C17.4951 7.5166 18.2471 8.19043 18.7842 9.08887C19.3213 9.97754 19.5898 11.0859 19.5898 12.4141C19.5898 12.9512 19.4629 13.5273 19.209 14.1426C18.9648 14.748 18.5791 15.3145 18.0518 15.8418C17.5342 16.3691 16.8604 16.8037 16.0303 17.1455C15.2002 17.4775 14.2041 17.6436 13.042 17.6436H10.7275V16.0029ZM10.7275 18.2295V16.6035H13.042C14.3994 16.6035 15.5225 16.7646 16.4111 17.0869C17.2998 17.4092 17.998 17.8389 18.5059 18.376C19.0234 18.9131 19.3848 19.5039 19.5898 20.1484C19.8047 20.7832 19.9121 21.418 19.9121 22.0527C19.9121 23.0488 19.7412 23.9326 19.3994 24.7041C19.0674 25.4756 18.5938 26.1299 17.9785 26.667C17.373 27.2041 16.6602 27.6094 15.8398 27.8828C15.0195 28.1562 14.126 28.293 13.1592 28.293C12.2314 28.293 11.3574 28.1611 10.5371 27.8975C9.72656 27.6338 9.00879 27.2529 8.38379 26.7549C7.75879 26.2471 7.27051 25.627 6.91895 24.8945C6.56738 24.1523 6.3916 23.3076 6.3916 22.3604H9.10156C9.10156 23.1025 9.2627 23.752 9.58496 24.3086C9.91699 24.8652 10.3857 25.2998 10.9912 25.6123C11.6064 25.915 12.3291 26.0664 13.1592 26.0664C13.9893 26.0664 14.7021 25.9248 15.2979 25.6416C15.9033 25.3486 16.3672 24.9092 16.6895 24.3232C17.0215 23.7373 17.1875 23 17.1875 22.1113C17.1875 21.2227 17.002 20.4951 16.6309 19.9287C16.2598 19.3525 15.7324 18.9277 15.0488 18.6543C14.375 18.3711 13.5791 18.2295 12.6611 18.2295H10.7275Z"/>
</mask>
<path d="M10.7275 16.0029H12.6611C13.6084 16.0029 14.3896 15.8467 15.0049 15.5342C15.6299 15.2119 16.0938 14.7773 16.3965 14.2305C16.709 13.6738 16.8652 13.0488 16.8652 12.3555C16.8652 11.5352 16.7285 10.8467 16.4551 10.29C16.1816 9.7334 15.7715 9.31348 15.2246 9.03027C14.6777 8.74707 13.9844 8.60547 13.1445 8.60547C12.3828 8.60547 11.709 8.75684 11.123 9.05957C10.5469 9.35254 10.0928 9.77246 9.76074 10.3193C9.43848 10.8662 9.27734 11.5107 9.27734 12.2529H6.56738C6.56738 11.1689 6.84082 10.1826 7.3877 9.29395C7.93457 8.40527 8.70117 7.69727 9.6875 7.16992C10.6836 6.64258 11.8359 6.37891 13.1445 6.37891C14.4336 6.37891 15.5615 6.6084 16.5283 7.06738C17.4951 7.5166 18.2471 8.19043 18.7842 9.08887C19.3213 9.97754 19.5898 11.0859 19.5898 12.4141C19.5898 12.9512 19.4629 13.5273 19.209 14.1426C18.9648 14.748 18.5791 15.3145 18.0518 15.8418C17.5342 16.3691 16.8604 16.8037 16.0303 17.1455C15.2002 17.4775 14.2041 17.6436 13.042 17.6436H10.7275V16.0029ZM10.7275 18.2295V16.6035H13.042C14.3994 16.6035 15.5225 16.7646 16.4111 17.0869C17.2998 17.4092 17.998 17.8389 18.5059 18.376C19.0234 18.9131 19.3848 19.5039 19.5898 20.1484C19.8047 20.7832 19.9121 21.418 19.9121 22.0527C19.9121 23.0488 19.7412 23.9326 19.3994 24.7041C19.0674 25.4756 18.5938 26.1299 17.9785 26.667C17.373 27.2041 16.6602 27.6094 15.8398 27.8828C15.0195 28.1562 14.126 28.293 13.1592 28.293C12.2314 28.293 11.3574 28.1611 10.5371 27.8975C9.72656 27.6338 9.00879 27.2529 8.38379 26.7549C7.75879 26.2471 7.27051 25.627 6.91895 24.8945C6.56738 24.1523 6.3916 23.3076 6.3916 22.3604H9.10156C9.10156 23.1025 9.2627 23.752 9.58496 24.3086C9.91699 24.8652 10.3857 25.2998 10.9912 25.6123C11.6064 25.915 12.3291 26.0664 13.1592 26.0664C13.9893 26.0664 14.7021 25.9248 15.2979 25.6416C15.9033 25.3486 16.3672 24.9092 16.6895 24.3232C17.0215 23.7373 17.1875 23 17.1875 22.1113C17.1875 21.2227 17.002 20.4951 16.6309 19.9287C16.2598 19.3525 15.7324 18.9277 15.0488 18.6543C14.375 18.3711 13.5791 18.2295 12.6611 18.2295H10.7275Z" fill="white"/>
<path d="M10.7275 16.0029V10.0029H4.72754V16.0029H10.7275ZM15.0049 15.5342L17.7221 20.8837L17.7384 20.8754L17.7546 20.867L15.0049 15.5342ZM16.3965 14.2305L11.1646 11.2933L11.1558 11.3089L11.1471 11.3246L16.3965 14.2305ZM11.123 9.05957L13.8425 14.4079L13.8599 14.3991L13.8772 14.3901L11.123 9.05957ZM9.76074 10.3193L4.63202 7.20547L4.61154 7.23919L4.59151 7.27318L9.76074 10.3193ZM9.27734 12.2529V18.2529H15.2773V12.2529H9.27734ZM6.56738 12.2529H0.567383V18.2529H6.56738V12.2529ZM9.6875 7.16992L6.88017 1.86719L6.86934 1.87293L6.85853 1.87871L9.6875 7.16992ZM16.5283 7.06738L13.9551 12.4876L13.9775 12.4982L14 12.5087L16.5283 7.06738ZM18.7842 9.08887L13.6343 12.1676L13.6417 12.18L13.6492 12.1924L18.7842 9.08887ZM19.209 14.1426L13.6627 11.8537L13.6534 11.8762L13.6443 11.8988L19.209 14.1426ZM18.0518 15.8418L13.8091 11.5992L13.7893 11.619L13.7697 11.639L18.0518 15.8418ZM16.0303 17.1455L18.2586 22.7164L18.2868 22.7051L18.3148 22.6936L16.0303 17.1455ZM10.7275 17.6436H4.72754V23.6436H10.7275V17.6436ZM10.7275 18.2295H4.72754V24.2295H10.7275V18.2295ZM10.7275 16.6035V10.6035H4.72754V16.6035H10.7275ZM18.5059 18.376L14.146 22.498L14.1656 22.5188L14.1854 22.5393L18.5059 18.376ZM19.5898 20.1484L13.8723 21.9677L13.8889 22.02L13.9065 22.072L19.5898 20.1484ZM19.3994 24.7041L13.9137 22.2737L13.9008 22.3029L13.8882 22.3322L19.3994 24.7041ZM17.9785 26.667L14.0326 22.1471L14.0146 22.1627L13.9968 22.1785L17.9785 26.667ZM10.5371 27.8975L8.68104 33.6032L8.69104 33.6064L8.70105 33.6096L10.5371 27.8975ZM8.38379 26.7549L4.60023 31.4116L4.62232 31.4295L4.64457 31.4472L8.38379 26.7549ZM6.91895 24.8945L1.49652 27.463L1.50313 27.477L1.50981 27.4909L6.91895 24.8945ZM6.3916 22.3604V16.3604H0.391602V22.3604H6.3916ZM9.10156 22.3604H15.1016V16.3604H9.10156V22.3604ZM9.58496 24.3086L4.3924 27.3148L4.412 27.3487L4.43204 27.3823L9.58496 24.3086ZM10.9912 25.6123L8.23935 30.944L8.29051 30.9704L8.34216 30.9958L10.9912 25.6123ZM15.2979 25.6416L17.874 31.0604L17.8926 31.0515L17.9112 31.0426L15.2979 25.6416ZM16.6895 24.3232L11.4693 21.3652L11.4505 21.3983L11.4322 21.4317L16.6895 24.3232ZM16.6309 19.9287L11.5866 23.1776L11.5993 23.1973L11.6121 23.2169L16.6309 19.9287ZM15.0488 18.6543L12.7241 24.1856L12.7721 24.2058L12.8205 24.2252L15.0488 18.6543ZM10.7275 22.0029H12.6611V10.0029H10.7275V22.0029ZM12.6611 22.0029C14.2193 22.0029 16.0109 21.7528 17.7221 20.8837L12.2877 10.1847C12.5352 10.059 12.7167 10.0151 12.7808 10.0023C12.8421 9.99 12.8113 10.0029 12.6611 10.0029V22.0029ZM17.7546 20.867C19.2981 20.0712 20.6982 18.8483 21.6458 17.1364L11.1471 11.3246C11.3041 11.0409 11.5023 10.7913 11.7194 10.5879C11.9324 10.3884 12.1267 10.2676 12.2551 10.2014L17.7546 20.867ZM21.6284 17.1677C22.4873 15.6377 22.8652 13.9864 22.8652 12.3555H10.8652C10.8652 12.2487 10.8777 12.0872 10.9272 11.889C10.9774 11.6883 11.057 11.4848 11.1646 11.2933L21.6284 17.1677ZM22.8652 12.3555C22.8652 10.9014 22.627 9.24583 21.8404 7.64462L11.0698 12.9355C10.8301 12.4475 10.8652 12.1689 10.8652 12.3555H22.8652ZM21.8404 7.64462C21.0053 5.94462 19.679 4.58022 17.9837 3.70231L12.4655 14.3582C12.1987 14.2201 11.9139 14.0201 11.6501 13.7501C11.3867 13.4804 11.1973 13.195 11.0698 12.9355L21.8404 7.64462ZM17.9837 3.70231C16.3314 2.84664 14.6125 2.60547 13.1445 2.60547V14.6055C13.2336 14.6055 13.2074 14.6135 13.0939 14.5903C12.9771 14.5665 12.7505 14.5058 12.4655 14.3582L17.9837 3.70231ZM13.1445 2.60547C11.5735 2.60547 9.92949 2.92272 8.36893 3.72901L13.8772 14.3901C13.4885 14.591 13.1921 14.6055 13.1445 14.6055V2.60547ZM8.40357 3.71126C6.8429 4.50482 5.54985 5.69374 4.63202 7.20547L14.8895 13.4332C14.7756 13.6207 14.621 13.8173 14.424 13.9994C14.2273 14.1813 14.0248 14.3152 13.8425 14.4079L8.40357 3.71126ZM4.59151 7.27318C3.63927 8.8891 3.27734 10.6227 3.27734 12.2529H15.2773C15.2773 12.3988 15.2377 12.8433 14.93 13.3655L4.59151 7.27318ZM9.27734 6.25293H6.56738V18.2529H9.27734V6.25293ZM12.5674 12.2529C12.5674 12.2207 12.5707 12.2443 12.5544 12.3031C12.5469 12.3302 12.5371 12.3577 12.5258 12.3837C12.5144 12.4095 12.5041 12.4281 12.4976 12.4385L2.27775 6.14936C1.12567 8.02149 0.567383 10.1038 0.567383 12.2529H12.5674ZM12.4976 12.4385C12.4923 12.4472 12.4839 12.4594 12.4727 12.4731C12.4614 12.4867 12.4511 12.4973 12.4436 12.5042C12.4364 12.5109 12.4358 12.5105 12.4453 12.5038C12.455 12.4969 12.4775 12.482 12.5165 12.4611L6.85853 1.87871C5.00496 2.86973 3.4215 4.29076 2.27775 6.14936L12.4976 12.4385ZM12.4948 12.4726C12.4962 12.4719 12.6563 12.3789 13.1445 12.3789V0.378906C11.0155 0.378906 8.87098 0.813239 6.88017 1.86719L12.4948 12.4726ZM13.1445 12.3789C13.7228 12.3789 13.94 12.4804 13.9551 12.4876L19.1015 1.64719C17.183 0.736368 15.1444 0.378906 13.1445 0.378906V12.3789ZM14 12.5087C13.9762 12.4976 13.9025 12.4581 13.8132 12.3781C13.7232 12.2974 13.6641 12.2175 13.6343 12.1676L23.9341 6.01013C22.7677 4.05905 21.0929 2.57224 19.0566 1.62608L14 12.5087ZM13.6492 12.1924C13.5711 12.0632 13.5531 11.983 13.5571 11.9995C13.5628 12.0228 13.5898 12.1501 13.5898 12.4141H25.5898C25.5898 10.2925 25.1597 8.03787 23.9192 5.98531L13.6492 12.1924ZM13.5898 12.4141C13.5898 12.0024 13.6864 11.7962 13.6627 11.8537L24.7552 16.4315C25.2393 15.2585 25.5898 13.8999 25.5898 12.4141H13.5898ZM13.6443 11.8988C13.6907 11.7838 13.7404 11.6984 13.7774 11.6441C13.8134 11.5913 13.8305 11.5778 13.8091 11.5992L22.2944 20.0844C23.3116 19.0673 24.1877 17.8394 24.7736 16.3864L13.6443 11.8988ZM13.7697 11.639C13.8079 11.6001 13.8407 11.5713 13.8651 11.5515C13.8894 11.5319 13.9042 11.5223 13.9063 11.5209C13.9096 11.5188 13.863 11.5492 13.7458 11.5974L18.3148 22.6936C19.7375 22.1078 21.14 21.261 22.3339 20.0446L13.7697 11.639ZM13.8019 11.5746C13.8581 11.5522 13.6586 11.6436 13.042 11.6436V23.6436C14.7496 23.6436 16.5423 23.4029 18.2586 22.7164L13.8019 11.5746ZM13.042 11.6436H10.7275V23.6436H13.042V11.6436ZM16.7275 17.6436V16.0029H4.72754V17.6436H16.7275ZM16.7275 18.2295V16.6035H4.72754V18.2295H16.7275ZM10.7275 22.6035H13.042V10.6035H10.7275V22.6035ZM13.042 22.6035C13.4891 22.6035 13.8193 22.6304 14.0502 22.6635C14.2828 22.6969 14.3755 22.731 14.3657 22.7275L18.4566 11.4463C16.6936 10.807 14.8188 10.6035 13.042 10.6035V22.6035ZM14.3657 22.7275C14.6129 22.8171 14.4345 22.8032 14.146 22.498L22.8657 14.2539C21.5616 12.8745 19.9867 12.0012 18.4566 11.4463L14.3657 22.7275ZM14.1854 22.5393C14.1644 22.5176 14.1102 22.4566 14.0464 22.3523C13.9815 22.2462 13.9194 22.1159 13.8723 21.9677L25.3074 18.3292C24.7951 16.7192 23.9168 15.3442 22.8263 14.2126L14.1854 22.5393ZM13.9065 22.072C13.9115 22.0868 13.9141 22.0963 13.9153 22.1008C13.9164 22.1052 13.9163 22.1054 13.9157 22.1017C13.915 22.098 13.9141 22.0915 13.9133 22.0825C13.9126 22.0736 13.9121 22.0635 13.9121 22.0527H25.9121C25.9121 20.7281 25.6859 19.4445 25.2731 18.2249L13.9065 22.072ZM13.9121 22.0527C13.9121 22.2084 13.8987 22.2943 13.8931 22.3235C13.8878 22.3506 13.8895 22.3283 13.9137 22.2737L24.8851 27.1345C25.6216 25.4721 25.9121 23.7368 25.9121 22.0527H13.9121ZM13.8882 22.3322C13.8895 22.3292 13.9032 22.299 13.9349 22.2552C13.967 22.2109 14.0024 22.1735 14.0326 22.1471L21.9245 31.1869C23.235 30.0428 24.2344 28.6474 24.9107 27.076L13.8882 22.3322ZM13.9968 22.1785C14.0028 22.1732 14.0092 22.1682 14.0151 22.1639C14.0211 22.1597 14.0246 22.1577 14.0245 22.1577C14.0243 22.1578 14.0187 22.161 14.0062 22.1665C13.9937 22.1721 13.9729 22.1806 13.9425 22.1907L17.7372 33.5749C19.2732 33.0629 20.7078 32.2665 21.9602 31.1554L13.9968 22.1785ZM13.9425 22.1907C13.8016 22.2377 13.5565 22.293 13.1592 22.293V34.293C14.6955 34.293 16.2375 34.0748 17.7372 33.5749L13.9425 22.1907ZM13.1592 22.293C12.8069 22.293 12.5563 22.2442 12.3732 22.1853L8.70105 33.6096C10.1585 34.0781 11.6559 34.293 13.1592 34.293V22.293ZM12.3932 22.1918C12.2202 22.1355 12.1496 22.0837 12.123 22.0625L4.64457 31.4472C5.86802 32.4222 7.23297 33.1321 8.68104 33.6032L12.3932 22.1918ZM12.1673 22.0982C12.192 22.1182 12.2272 22.1518 12.2629 22.1971C12.2984 22.2423 12.3193 22.2798 12.3281 22.2981L1.50981 27.4909C2.24104 29.0143 3.2817 30.3403 4.60023 31.4116L12.1673 22.0982ZM12.3414 22.326C12.3594 22.3642 12.3727 22.3983 12.3821 22.4266C12.3914 22.4546 12.3959 22.4738 12.3976 22.482C12.4011 22.4986 12.3916 22.4628 12.3916 22.3604H0.391602C0.391602 24.0599 0.710419 25.8035 1.49652 27.463L12.3414 22.326ZM6.3916 28.3604H9.10156V16.3604H6.3916V28.3604ZM3.10156 22.3604C3.10156 23.9936 3.46442 25.7119 4.3924 27.3148L14.7775 21.3024C15.061 21.792 15.1016 22.2115 15.1016 22.3604H3.10156ZM4.43204 27.3823C5.36797 28.9513 6.69185 30.1453 8.23935 30.944L13.7431 20.2806C13.8912 20.357 14.0755 20.4765 14.2647 20.652C14.4555 20.8289 14.6152 21.0292 14.7379 21.2349L4.43204 27.3823ZM8.34216 30.9958C9.93714 31.7807 11.6013 32.0664 13.1592 32.0664V20.0664C13.057 20.0664 13.2757 20.0494 13.6403 20.2288L8.34216 30.9958ZM13.1592 32.0664C14.6567 32.0664 16.2932 31.8119 17.874 31.0604L12.7217 20.2228C13.1111 20.0377 13.3218 20.0664 13.1592 20.0664V32.0664ZM17.9112 31.0426C19.6299 30.2109 21.021 28.898 21.9467 27.2148L11.4322 21.4317C11.556 21.2066 11.7343 20.963 11.9734 20.7366C12.2122 20.5103 12.4615 20.3485 12.6845 20.2406L17.9112 31.0426ZM21.9096 27.2813C22.8906 25.55 23.1875 23.7159 23.1875 22.1113H11.1875C11.1875 22.2841 11.1523 21.9246 11.4693 21.3652L21.9096 27.2813ZM23.1875 22.1113C23.1875 20.4134 22.8328 18.4464 21.6496 16.6406L11.6121 23.2169C11.1711 22.5438 11.1875 22.0319 11.1875 22.1113H23.1875ZM21.6751 16.6798C20.5782 14.9767 19.027 13.7834 17.2772 13.0834L12.8205 24.2252C12.6567 24.1596 12.4324 24.0433 12.1931 23.8505C11.9504 23.655 11.7446 23.4229 11.5866 23.1776L21.6751 16.6798ZM17.3736 13.123C15.8015 12.4622 14.1803 12.2295 12.6611 12.2295V24.2295C12.8142 24.2295 12.8874 24.2415 12.8956 24.2429C12.9018 24.244 12.8371 24.2331 12.7241 24.1856L17.3736 13.123ZM12.6611 12.2295H10.7275V24.2295H12.6611V12.2295Z" fill="black" fill-opacity="0.1" mask="url(#path-1-outside-1_7_171)"/>
</svg>
