<svg width="27" height="26" viewBox="0 0 27 26" fill="none" xmlns="http://www.w3.org/2000/svg">
<path d="M12.0011 1.8345C12.5734 0.675032 14.2267 0.675035 14.799 1.8345L17.6218 7.55422C17.849 8.01464 18.2883 8.33377 18.7964 8.4076L25.1085 9.3248C26.388 9.51073 26.8989 11.0832 25.9731 11.9857L21.4056 16.4379C21.0379 16.7963 20.8701 17.3126 20.9569 17.8187L22.0352 24.1052C22.2537 25.3796 20.9161 26.3514 19.7717 25.7498L14.126 22.7816C13.6715 22.5427 13.1286 22.5427 12.6741 22.7816L7.02841 25.7498C5.88395 26.3514 4.54636 25.3796 4.76493 24.1053L5.84317 17.8187C5.92996 17.3126 5.76219 16.7963 5.39452 16.4379L0.827046 11.9857C-0.0988405 11.0832 0.412077 9.51073 1.69162 9.3248L8.00371 8.4076C8.51182 8.33377 8.95106 8.01464 9.17829 7.55422L12.0011 1.8345Z" fill="#F2C94C"/>
</svg>
